<?xml version="1.0" encoding="utf-8"?>
<!-- Generator: Adobe Illustrator 27.5.0, SVG Export Plug-In . SVG Version: 6.00 Build 0)  -->
<svg version="1.1" xmlns="http://www.w3.org/2000/svg" xmlns:xlink="http://www.w3.org/1999/xlink" x="0px" y="0px"
	 viewBox="0 0 500 500" style="enable-background:new 0 0 500 500;" xml:space="preserve">
<g id="BACKGROUND">
	<rect style="fill:#FFFFFF;" width="500" height="500"/>
</g>
<g id="OBJECTS">
	<g>
		<defs>
			<rect id="SVGID_1_" width="500" height="500"/>
		</defs>
		<clipPath id="SVGID_00000019655053522101306410000016300018256140002218_">
			<use xlink:href="#SVGID_1_"  style="overflow:visible;"/>
		</clipPath>
		<g style="clip-path:url(#SVGID_00000019655053522101306410000016300018256140002218_);">
			<g>
				
					<linearGradient id="SVGID_00000083792644477854469480000012404639855135279281_" gradientUnits="userSpaceOnUse" x1="250" y1="236.8448" x2="250" y2="50">
					<stop  offset="0" style="stop-color:#DDDDDD"/>
					<stop  offset="0.5057" style="stop-color:#ECECEC;stop-opacity:0.4943"/>
					<stop  offset="1" style="stop-color:#FFFFFF;stop-opacity:0"/>
				</linearGradient>
				<polygon style="fill:url(#SVGID_00000083792644477854469480000012404639855135279281_);" points="255.834,236.845 
					245.759,236.845 236.199,50 263.801,50 				"/>
				
					<linearGradient id="SVGID_00000095334732895909519410000008794004229935216813_" gradientUnits="userSpaceOnUse" x1="240" y1="-35.8218" x2="240" y2="-222.6666" gradientTransform="matrix(-1 0 0 -1 490 227.3334)">
					<stop  offset="0" style="stop-color:#DDDDDD"/>
					<stop  offset="0.5057" style="stop-color:#ECECEC;stop-opacity:0.4943"/>
					<stop  offset="1" style="stop-color:#FFFFFF;stop-opacity:0"/>
				</linearGradient>
				<polygon style="fill:url(#SVGID_00000095334732895909519410000008794004229935216813_);" points="244.166,263.155 
					254.24,263.155 263.801,450 236.199,450 				"/>
				
					<linearGradient id="SVGID_00000075133845989446213010000009624115337895372449_" gradientUnits="userSpaceOnUse" x1="247.5223" y1="234.3671" x2="247.5223" y2="47.5223" gradientTransform="matrix(0 -1 1 0 2.4777 497.5223)">
					<stop  offset="0" style="stop-color:#DDDDDD"/>
					<stop  offset="0.5057" style="stop-color:#ECECEC;stop-opacity:0.4943"/>
					<stop  offset="1" style="stop-color:#FFFFFF;stop-opacity:0"/>
				</linearGradient>
				<polygon style="fill:url(#SVGID_00000075133845989446213010000009624115337895372449_);" points="236.845,244.166 
					236.845,254.24 50,263.801 50,236.199 				"/>
				
					<linearGradient id="SVGID_00000003085491207193557420000015426969109420530841_" gradientUnits="userSpaceOnUse" x1="242.4778" y1="-33.3441" x2="242.4778" y2="-220.1889" gradientTransform="matrix(0 1 -1 0 229.8111 7.5222)">
					<stop  offset="0" style="stop-color:#DDDDDD"/>
					<stop  offset="0.5057" style="stop-color:#ECECEC;stop-opacity:0.4943"/>
					<stop  offset="1" style="stop-color:#FFFFFF;stop-opacity:0"/>
				</linearGradient>
				<polygon style="fill:url(#SVGID_00000003085491207193557420000015426969109420530841_);" points="263.155,255.834 
					263.155,245.76 450,236.199 450,263.801 				"/>
			</g>
			<g>
				
					<linearGradient id="SVGID_00000048479588566539889470000002259074380311875511_" gradientUnits="userSpaceOnUse" x1="248.3265" y1="236.1975" x2="248.3265" y2="49.3509" gradientTransform="matrix(0.7071 -0.7071 0.7071 0.7071 -101.9091 249.2743)">
					<stop  offset="0" style="stop-color:#DDDDDD"/>
					<stop  offset="0.5057" style="stop-color:#ECECEC;stop-opacity:0.4943"/>
					<stop  offset="1" style="stop-color:#FFFFFF;stop-opacity:0"/>
				</linearGradient>
				<polygon style="fill:url(#SVGID_00000048479588566539889470000002259074380311875511_);" points="244.823,236.573 
					237.699,243.696 98.82,118.337 118.337,98.82 				"/>
				
					<linearGradient id="SVGID_00000029047296091930142270000016933132587779500711_" gradientUnits="userSpaceOnUse" x1="241.8305" y1="-35.0204" x2="241.8305" y2="-221.867" gradientTransform="matrix(-0.7071 0.7071 -0.7071 -0.7071 405.5376 63.5409)">
					<stop  offset="0" style="stop-color:#DDDDDD"/>
					<stop  offset="0.5057" style="stop-color:#ECECEC;stop-opacity:0.4943"/>
					<stop  offset="1" style="stop-color:#FFFFFF;stop-opacity:0"/>
				</linearGradient>
				<polygon style="fill:url(#SVGID_00000029047296091930142270000016933132587779500711_);" points="255.177,263.427 
					262.301,256.304 401.18,381.663 381.663,401.18 				"/>
				
					<linearGradient id="SVGID_00000070816216206816990130000009035680089886111896_" gradientUnits="userSpaceOnUse" x1="248.3265" y1="232.6934" x2="248.3265" y2="45.8468" gradientTransform="matrix(-0.7071 -0.7071 0.7071 -0.7071 251.752 599.4313)">
					<stop  offset="0" style="stop-color:#DDDDDD"/>
					<stop  offset="0.5057" style="stop-color:#ECECEC;stop-opacity:0.4943"/>
					<stop  offset="1" style="stop-color:#FFFFFF;stop-opacity:0"/>
				</linearGradient>
				<polygon style="fill:url(#SVGID_00000070816216206816990130000009035680089886111896_);" points="236.573,255.177 
					243.696,262.301 118.337,401.18 98.82,381.663 				"/>
				
					<linearGradient id="SVGID_00000021820964448430495100000006760788767456158860_" gradientUnits="userSpaceOnUse" x1="241.8305" y1="-31.5162" x2="241.8305" y2="-218.3628" gradientTransform="matrix(0.7071 0.7071 -0.7071 0.7071 66.0187 91.9846)">
					<stop  offset="0" style="stop-color:#DDDDDD"/>
					<stop  offset="0.5057" style="stop-color:#ECECEC;stop-opacity:0.4943"/>
					<stop  offset="1" style="stop-color:#FFFFFF;stop-opacity:0"/>
				</linearGradient>
				<polygon style="fill:url(#SVGID_00000021820964448430495100000006760788767456158860_);" points="263.427,244.823 
					256.304,237.699 381.663,98.82 401.18,118.337 				"/>
			</g>
			<g>
				
					<linearGradient id="SVGID_00000178911496105875132330000003262825249107089548_" gradientUnits="userSpaceOnUse" x1="248.5839" y1="236.3673" x2="248.5839" y2="49.5313" gradientTransform="matrix(0.9274 -0.3742 0.3742 0.9274 -73.9056 111.6127)">
					<stop  offset="0" style="stop-color:#DDDDDD"/>
					<stop  offset="0.5057" style="stop-color:#ECECEC;stop-opacity:0.4943"/>
					<stop  offset="1" style="stop-color:#FFFFFF;stop-opacity:0"/>
				</linearGradient>
				<polygon style="fill:url(#SVGID_00000178911496105875132330000003262825249107089548_);" points="250.488,235.617 
					241.145,239.387 162.367,69.692 187.964,59.364 				"/>
				
					<linearGradient id="SVGID_00000093873608266547458420000011895935238575959471_" gradientUnits="userSpaceOnUse" x1="240.4418" y1="-35.9263" x2="240.4418" y2="-222.7623" gradientTransform="matrix(-0.9274 0.3742 -0.3742 -0.9274 464.4623 138.909)">
					<stop  offset="0" style="stop-color:#DDDDDD"/>
					<stop  offset="0.5057" style="stop-color:#ECECEC;stop-opacity:0.4943"/>
					<stop  offset="1" style="stop-color:#FFFFFF;stop-opacity:0"/>
				</linearGradient>
				<polygon style="fill:url(#SVGID_00000093873608266547458420000011895935238575959471_);" points="249.512,264.383 
					258.855,260.613 337.633,430.308 312.036,440.636 				"/>
				
					<linearGradient id="SVGID_00000157289343498846512220000007559839573797978038_" gradientUnits="userSpaceOnUse" x1="247.2134" y1="233.1426" x2="247.2134" y2="46.3066" gradientTransform="matrix(-0.3742 -0.9274 0.9274 -0.3742 114.0904 571.4279)">
					<stop  offset="0" style="stop-color:#DDDDDD"/>
					<stop  offset="0.5057" style="stop-color:#ECECEC;stop-opacity:0.4943"/>
					<stop  offset="1" style="stop-color:#FFFFFF;stop-opacity:0"/>
				</linearGradient>
				<polygon style="fill:url(#SVGID_00000157289343498846512220000007559839573797978038_);" points="235.617,249.512 
					239.387,258.855 69.692,337.633 59.364,312.036 				"/>
				
					<linearGradient id="SVGID_00000018942586439823087050000009251107346895273656_" gradientUnits="userSpaceOnUse" x1="241.8123" y1="-32.7016" x2="241.8123" y2="-219.5376" gradientTransform="matrix(0.3742 0.9274 -0.9274 0.3742 141.3868 33.06)">
					<stop  offset="0" style="stop-color:#DDDDDD"/>
					<stop  offset="0.5057" style="stop-color:#ECECEC;stop-opacity:0.4943"/>
					<stop  offset="1" style="stop-color:#FFFFFF;stop-opacity:0"/>
				</linearGradient>
				<polygon style="fill:url(#SVGID_00000018942586439823087050000009251107346895273656_);" points="264.382,250.488 
					260.613,241.145 430.308,162.367 440.636,187.964 				"/>
			</g>
			<g>
				
					<linearGradient id="SVGID_00000131351934681527227550000016779451763486691728_" gradientUnits="userSpaceOnUse" x1="248.0974" y1="235.0359" x2="248.0974" y2="48.1895" gradientTransform="matrix(0.3912 -0.9203 0.9203 0.3912 -75.4693 381.2394)">
					<stop  offset="0" style="stop-color:#DDDDDD"/>
					<stop  offset="0.5057" style="stop-color:#ECECEC;stop-opacity:0.4943"/>
					<stop  offset="1" style="stop-color:#FFFFFF;stop-opacity:0"/>
				</linearGradient>
				<polygon style="fill:url(#SVGID_00000131351934681527227550000016779451763486691728_);" points="240.175,239.485 
					236.234,248.757 60.537,184.469 71.334,159.066 				"/>
				
					<linearGradient id="SVGID_00000160162910068080778940000004187700097848897693_" gradientUnits="userSpaceOnUse" x1="242.6467" y1="-34.6148" x2="242.6467" y2="-221.4612" gradientTransform="matrix(-0.3912 0.9203 -0.9203 -0.3912 325.1774 18.2895)">
					<stop  offset="0" style="stop-color:#DDDDDD"/>
					<stop  offset="0.5057" style="stop-color:#ECECEC;stop-opacity:0.4943"/>
					<stop  offset="1" style="stop-color:#FFFFFF;stop-opacity:0"/>
				</linearGradient>
				<polygon style="fill:url(#SVGID_00000160162910068080778940000004187700097848897693_);" points="259.825,260.515 
					263.766,251.243 439.463,315.531 428.666,340.934 				"/>
				
					<linearGradient id="SVGID_00000101798728884541609800000013736679767677190327_" gradientUnits="userSpaceOnUse" x1="249.4084" y1="231.7863" x2="249.4084" y2="44.9398" gradientTransform="matrix(-0.9203 -0.3912 0.3912 -0.9203 383.7172 572.9915)">
					<stop  offset="0" style="stop-color:#DDDDDD"/>
					<stop  offset="0.5057" style="stop-color:#ECECEC;stop-opacity:0.4943"/>
					<stop  offset="1" style="stop-color:#FFFFFF;stop-opacity:0"/>
				</linearGradient>
				<polygon style="fill:url(#SVGID_00000101798728884541609800000013736679767677190327_);" points="239.485,259.825 
					248.757,263.766 184.469,439.463 159.066,428.666 				"/>
				
					<linearGradient id="SVGID_00000121247464170288713520000006117014165017315973_" gradientUnits="userSpaceOnUse" x1="241.3358" y1="-31.3653" x2="241.3358" y2="-218.2117" gradientTransform="matrix(0.9203 0.3912 -0.3912 0.9203 20.7672 172.3449)">
					<stop  offset="0" style="stop-color:#DDDDDD"/>
					<stop  offset="0.5057" style="stop-color:#ECECEC;stop-opacity:0.4943"/>
					<stop  offset="1" style="stop-color:#FFFFFF;stop-opacity:0"/>
				</linearGradient>
				<polygon style="fill:url(#SVGID_00000121247464170288713520000006117014165017315973_);" points="260.515,240.175 
					251.243,236.234 315.531,60.537 340.934,71.334 				"/>
			</g>
			<g>
				
					<linearGradient id="SVGID_00000004508201921492300030000010168749178300584876_" gradientUnits="userSpaceOnUse" x1="249.6772" y1="237.3423" x2="249.6772" y2="50.489" gradientTransform="matrix(0.9805 -0.1963 0.1963 0.9805 -43.9766 53.3975)">
					<stop  offset="0" style="stop-color:#DDDDDD"/>
					<stop  offset="0.5057" style="stop-color:#ECECEC;stop-opacity:0.4943"/>
					<stop  offset="1" style="stop-color:#FFFFFF;stop-opacity:0"/>
				</linearGradient>
				<polygon style="fill:url(#SVGID_00000004508201921492300030000010168749178300584876_);" points="253.138,235.956 
					243.26,237.933 197.21,56.6 224.275,51.182 				"/>
				
					<linearGradient id="SVGID_00000012439746863224965230000006165475059400639640_" gradientUnits="userSpaceOnUse" x1="240.656" y1="-35.2398" x2="240.656" y2="-222.0931" gradientTransform="matrix(-0.9805 0.1963 -0.1963 -0.9805 481.6234 181.1066)">
					<stop  offset="0" style="stop-color:#DDDDDD"/>
					<stop  offset="0.5057" style="stop-color:#ECECEC;stop-opacity:0.4943"/>
					<stop  offset="1" style="stop-color:#FFFFFF;stop-opacity:0"/>
				</linearGradient>
				<polygon style="fill:url(#SVGID_00000012439746863224965230000006165475059400639640_);" points="246.862,264.044 
					256.74,262.067 302.79,443.4 275.724,448.818 				"/>
				
					<linearGradient id="SVGID_00000180342851111911142420000009390561409131950468_" gradientUnits="userSpaceOnUse" x1="247.7339" y1="234.4262" x2="247.7339" y2="47.573" gradientTransform="matrix(-0.1963 -0.9805 0.9805 -0.1963 55.8752 541.4988)">
					<stop  offset="0" style="stop-color:#DDDDDD"/>
					<stop  offset="0.5057" style="stop-color:#ECECEC;stop-opacity:0.4943"/>
					<stop  offset="1" style="stop-color:#FFFFFF;stop-opacity:0"/>
				</linearGradient>
				<polygon style="fill:url(#SVGID_00000180342851111911142420000009390561409131950468_);" points="235.956,246.862 
					237.933,256.74 56.6,302.79 51.182,275.724 				"/>
				
					<linearGradient id="SVGID_00000089573127651776314580000007912432012032593339_" gradientUnits="userSpaceOnUse" x1="242.5991" y1="-32.3238" x2="242.5991" y2="-219.1771" gradientTransform="matrix(0.1963 0.9805 -0.9805 0.1963 183.5843 15.8989)">
					<stop  offset="0" style="stop-color:#DDDDDD"/>
					<stop  offset="0.5057" style="stop-color:#ECECEC;stop-opacity:0.4943"/>
					<stop  offset="1" style="stop-color:#FFFFFF;stop-opacity:0"/>
				</linearGradient>
				<polygon style="fill:url(#SVGID_00000089573127651776314580000007912432012032593339_);" points="264.044,253.138 
					262.067,243.26 443.4,197.21 448.818,224.275 				"/>
			</g>
			<g>
				
					<linearGradient id="SVGID_00000108294018827773380710000017893948014051203233_" gradientUnits="userSpaceOnUse" x1="248.5463" y1="235.3535" x2="248.5463" y2="48.5051" gradientTransform="matrix(0.5546 -0.8321 0.8321 0.5546 -94.6347 319.0026)">
					<stop  offset="0" style="stop-color:#DDDDDD"/>
					<stop  offset="0.5057" style="stop-color:#ECECEC;stop-opacity:0.4943"/>
					<stop  offset="1" style="stop-color:#FFFFFF;stop-opacity:0"/>
				</linearGradient>
				<polygon style="fill:url(#SVGID_00000108294018827773380710000017893948014051203233_);" points="242.288,237.85 
					236.701,246.233 75.917,150.573 91.224,127.604 				"/>
				
					<linearGradient id="SVGID_00000054970466313948952710000010496603147685682330_" gradientUnits="userSpaceOnUse" x1="242.6533" y1="-35.1092" x2="242.6533" y2="-221.9576" gradientTransform="matrix(-0.5546 0.8321 -0.8321 -0.5546 366.3144 35.9023)">
					<stop  offset="0" style="stop-color:#DDDDDD"/>
					<stop  offset="0.5057" style="stop-color:#ECECEC;stop-opacity:0.4943"/>
					<stop  offset="1" style="stop-color:#FFFFFF;stop-opacity:0"/>
				</linearGradient>
				<polygon style="fill:url(#SVGID_00000054970466313948952710000010496603147685682330_);" points="257.712,262.15 
					263.299,253.767 424.083,349.427 408.776,372.396 				"/>
				
					<linearGradient id="SVGID_00000105402348827975079080000006806217053073192583_" gradientUnits="userSpaceOnUse" x1="249.2339" y1="231.9175" x2="249.2339" y2="45.0691" gradientTransform="matrix(-0.8321 -0.5546 0.5546 -0.8321 321.4804 592.157)">
					<stop  offset="0" style="stop-color:#DDDDDD"/>
					<stop  offset="0.5057" style="stop-color:#ECECEC;stop-opacity:0.4943"/>
					<stop  offset="1" style="stop-color:#FFFFFF;stop-opacity:0"/>
				</linearGradient>
				<polygon style="fill:url(#SVGID_00000105402348827975079080000006806217053073192583_);" points="237.85,257.712 
					246.233,263.299 150.573,424.083 127.604,408.776 				"/>
				
					<linearGradient id="SVGID_00000112630599609324468430000001711512030414115487_" gradientUnits="userSpaceOnUse" x1="241.9656" y1="-31.6732" x2="241.9656" y2="-218.5217" gradientTransform="matrix(0.8321 0.5546 -0.5546 0.8321 38.3801 131.2079)">
					<stop  offset="0" style="stop-color:#DDDDDD"/>
					<stop  offset="0.5057" style="stop-color:#ECECEC;stop-opacity:0.4943"/>
					<stop  offset="1" style="stop-color:#FFFFFF;stop-opacity:0"/>
				</linearGradient>
				<polygon style="fill:url(#SVGID_00000112630599609324468430000001711512030414115487_);" points="262.15,242.288 
					253.767,236.701 349.427,75.917 372.396,91.224 				"/>
			</g>
			<g>
				
					<linearGradient id="SVGID_00000094596509810576260940000005673756594240751547_" gradientUnits="userSpaceOnUse" x1="248.7946" y1="236.1138" x2="248.7946" y2="49.2704" gradientTransform="matrix(0.8359 -0.5489 0.5489 0.8359 -94.796 178.2028)">
					<stop  offset="0" style="stop-color:#DDDDDD"/>
					<stop  offset="0.5057" style="stop-color:#ECECEC;stop-opacity:0.4943"/>
					<stop  offset="1" style="stop-color:#FFFFFF;stop-opacity:0"/>
				</linearGradient>
				<polygon style="fill:url(#SVGID_00000094596509810576260940000005673756594240751547_);" points="247.655,235.801 
					239.234,241.331 128.68,90.401 151.752,75.249 				"/>
				
					<linearGradient id="SVGID_00000062900337710391516520000018403965842337421738_" gradientUnits="userSpaceOnUse" x1="241.5069" y1="-35.7366" x2="241.5069" y2="-222.5799" gradientTransform="matrix(-0.8359 0.5489 -0.5489 -0.8359 439.4855 98.5577)">
					<stop  offset="0" style="stop-color:#DDDDDD"/>
					<stop  offset="0.5057" style="stop-color:#ECECEC;stop-opacity:0.4943"/>
					<stop  offset="1" style="stop-color:#FFFFFF;stop-opacity:0"/>
				</linearGradient>
				<polygon style="fill:url(#SVGID_00000062900337710391516520000018403965842337421738_);" points="252.345,264.198 
					260.766,258.668 371.32,409.599 348.248,424.751 				"/>
				
					<linearGradient id="SVGID_00000036246709505984279850000015061227538914017675_" gradientUnits="userSpaceOnUse" x1="248.0836" y1="232.6826" x2="248.0836" y2="45.8393" gradientTransform="matrix(-0.5489 -0.8359 0.8359 -0.5489 180.6806 592.3183)">
					<stop  offset="0" style="stop-color:#DDDDDD"/>
					<stop  offset="0.5057" style="stop-color:#ECECEC;stop-opacity:0.4943"/>
					<stop  offset="1" style="stop-color:#FFFFFF;stop-opacity:0"/>
				</linearGradient>
				<polygon style="fill:url(#SVGID_00000036246709505984279850000015061227538914017675_);" points="235.801,252.345 
					241.331,260.766 90.401,371.32 75.249,348.248 				"/>
				
					<linearGradient id="SVGID_00000174568734037914378730000002359824619115309187_" gradientUnits="userSpaceOnUse" x1="242.2179" y1="-32.3055" x2="242.2179" y2="-219.1488" gradientTransform="matrix(0.5489 0.8359 -0.8359 0.5489 101.0355 58.0368)">
					<stop  offset="0" style="stop-color:#DDDDDD"/>
					<stop  offset="0.5057" style="stop-color:#ECECEC;stop-opacity:0.4943"/>
					<stop  offset="1" style="stop-color:#FFFFFF;stop-opacity:0"/>
				</linearGradient>
				<polygon style="fill:url(#SVGID_00000174568734037914378730000002359824619115309187_);" points="264.198,247.655 
					258.668,239.234 409.599,128.68 424.751,151.752 				"/>
			</g>
			<g>
				
					<linearGradient id="SVGID_00000013189082434717490330000013766847226629575357_" gradientUnits="userSpaceOnUse" x1="247.4984" y1="234.9384" x2="247.4984" y2="48.0935" gradientTransform="matrix(0.2029 -0.9792 0.9792 0.2029 -43.1503 442.0105)">
					<stop  offset="0" style="stop-color:#DDDDDD"/>
					<stop  offset="0.5057" style="stop-color:#ECECEC;stop-opacity:0.4943"/>
					<stop  offset="1" style="stop-color:#FFFFFF;stop-opacity:0"/>
				</linearGradient>
				<polygon style="fill:url(#SVGID_00000013189082434717490330000013766847226629575357_);" points="238.302,241.618 
					236.258,251.483 51.36,222.932 56.961,195.904 				"/>
				
					<linearGradient id="SVGID_00000134212962218222079930000007796038915788124289_" gradientUnits="userSpaceOnUse" x1="242.3532" y1="-33.7781" x2="242.3532" y2="-220.623" gradientTransform="matrix(-0.2029 0.9792 -0.9792 -0.2029 278.9791 8.5051)">
					<stop  offset="0" style="stop-color:#DDDDDD"/>
					<stop  offset="0.5057" style="stop-color:#ECECEC;stop-opacity:0.4943"/>
					<stop  offset="1" style="stop-color:#FFFFFF;stop-opacity:0"/>
				</linearGradient>
				<polygon style="fill:url(#SVGID_00000134212962218222079930000007796038915788124289_);" points="261.698,258.382 
					263.742,248.517 448.64,277.068 443.039,304.096 				"/>
				
					<linearGradient id="SVGID_00000119822771606469851600000004505597386274055580_" gradientUnits="userSpaceOnUse" x1="249.4219" y1="232.0096" x2="249.4219" y2="45.1647" gradientTransform="matrix(-0.9792 -0.2029 0.2029 -0.9792 444.4882 540.6726)">
					<stop  offset="0" style="stop-color:#DDDDDD"/>
					<stop  offset="0.5057" style="stop-color:#ECECEC;stop-opacity:0.4943"/>
					<stop  offset="1" style="stop-color:#FFFFFF;stop-opacity:0"/>
				</linearGradient>
				<polygon style="fill:url(#SVGID_00000119822771606469851600000004505597386274055580_);" points="241.618,261.698 
					251.483,263.742 222.932,448.64 195.904,443.039 				"/>
				
					<linearGradient id="SVGID_00000023973901297400610550000012349596355079958441_" gradientUnits="userSpaceOnUse" x1="240.4297" y1="-30.8491" x2="240.4297" y2="-217.694" gradientTransform="matrix(0.9792 0.2029 -0.2029 0.9792 10.9829 218.5431)">
					<stop  offset="0" style="stop-color:#DDDDDD"/>
					<stop  offset="0.5057" style="stop-color:#ECECEC;stop-opacity:0.4943"/>
					<stop  offset="1" style="stop-color:#FFFFFF;stop-opacity:0"/>
				</linearGradient>
				<polygon style="fill:url(#SVGID_00000023973901297400610550000012349596355079958441_);" points="258.382,238.302 
					248.517,236.258 277.068,51.36 304.096,56.961 				"/>
			</g>
		</g>
	</g>
	<g>
		<g>
			<path style="fill:#F3CE41;" d="M248.422,383.891c-6.047,0-11.912-2.16-16.514-6.082l-21.203-18.065
				c-42.908-36.56-72.029-87.249-81.998-142.731c-2.321-12.918,0.991-26.251,9.088-36.581c8.097-10.329,20.253-16.731,33.351-17.563
				c10.845-0.688,21.204-3.635,30.79-8.758c4.923-2.631,10.088-6.878,15.557-11.375c10.15-8.347,20.646-16.977,31.788-16.977
				l0.235,0.001c10.6,0.118,20.525,8.614,30.124,16.83c5.373,4.6,10.449,8.944,15.27,11.521c9.585,5.124,19.944,8.07,30.79,8.758
				c13.098,0.832,25.254,7.233,33.351,17.563c8.097,10.33,11.408,23.663,9.088,36.581c-9.97,55.482-39.091,106.172-81.998,142.73
				l-21.203,18.065C260.333,381.73,254.469,383.891,248.422,383.891z"/>
			<path style="fill:#131A37;" d="M249.28,128.667c0.067,0,0.136,0,0.203,0.001c15.156,0.168,30.28,20.646,44.054,28.008l0,0
				c9.886,5.284,20.79,8.385,31.977,9.096h0c25.746,1.635,44.323,25.334,39.76,50.726v0
				c-9.877,54.968-38.511,104.811-81.022,141.031l-21.203,18.066c-4.214,3.591-9.421,5.386-14.627,5.386s-10.413-1.795-14.627-5.386
				l-21.203-18.066c-42.51-36.221-71.144-86.063-81.022-141.031v0c-4.562-25.391,14.014-49.091,39.76-50.726h0
				c11.187-0.71,22.091-3.812,31.977-9.096l0,0C217.662,149.003,233.483,128.667,249.28,128.667 M249.28,122.85
				c-12.185,0-23.09,8.967-33.636,17.639c-5.354,4.403-10.411,8.561-15.08,11.056c-9.215,4.925-19.175,7.758-29.603,8.421
				c-13.925,0.884-26.848,7.689-35.456,18.671s-12.129,25.156-9.661,38.889c10.088,56.143,39.556,107.436,82.974,144.431
				l21.203,18.066c5.128,4.37,11.663,6.776,18.4,6.776s13.272-2.406,18.4-6.776l21.203-18.066
				c43.419-36.995,72.886-88.288,82.975-144.43c2.468-13.733-1.054-27.908-9.661-38.889c-8.608-10.982-21.531-17.787-35.456-18.671
				c-10.428-0.662-20.388-3.495-29.603-8.421c-4.541-2.427-9.5-6.672-14.75-11.166c-9.993-8.554-20.326-17.399-31.982-17.529
				L249.28,122.85L249.28,122.85z"/>
		</g>
		<g>
			<path style="fill:#CE4153;" d="M261.143,284.759l65.254,26.086c19.398-28.126,32.749-60.248,38.876-94.347l0,0
				c4.562-25.391-14.014-49.091-39.76-50.726h0c-2.504-0.159-4.991-0.456-7.458-0.852C313.098,183.055,291.08,258.5,261.143,284.759
				z"/>
			<path style="fill:#CE4153;" d="M177.762,165.068c-2.132,0.313-4.274,0.567-6.432,0.704l0,0
				c-25.746,1.635-44.323,25.334-39.76,50.726l0,0c6.103,33.964,19.375,65.966,38.648,94.011l64.415-25.751
				C204.78,258.574,182.8,183.473,177.762,165.068z"/>
			<g>
				<path style="fill:none;stroke:#182351;stroke-width:2.3269;stroke-miterlimit:10;" d="M318.055,164.92
					c-4.957,18.135-26.975,93.581-56.912,119.839l65.254,26.086"/>
				<path style="fill:none;stroke:#182351;stroke-width:2.3269;stroke-miterlimit:10;" d="M325.513,165.772"/>
				<path style="fill:none;stroke:#182351;stroke-width:2.3269;stroke-miterlimit:10;" d="M170.218,310.509l64.415-25.751
					c-29.853-26.185-51.833-101.286-56.871-119.691"/>
			</g>
			<g>
				<path style="fill:none;stroke:#FFFFFF;stroke-width:2.472;stroke-miterlimit:10;" d="M322.712,170.741
					c-4.957,18.135-26.975,93.581-56.912,119.839"/>
				<path style="fill:none;stroke:#FFFFFF;stroke-width:2.472;stroke-miterlimit:10;" d="M229.976,289.416
					c-29.853-26.185-51.833-101.286-56.871-119.691"/>
			</g>
			<g>
				<path style="fill:none;stroke:#FFFFFF;stroke-width:2.472;stroke-miterlimit:10;" d="M311.163,169.577
					c-4.957,18.135-26.975,93.581-56.912,119.839"/>
				<path style="fill:none;stroke:#FFFFFF;stroke-width:2.472;stroke-miterlimit:10;" d="M242.493,289.416
					c-29.853-26.185-51.833-101.286-56.871-119.691"/>
			</g>
		</g>
		<path style="fill:none;stroke:#FFFFFF;stroke-width:2.472;stroke-miterlimit:10;" d="M291.142,161.887L291.142,161.887
			c-13.042-6.971-27.364-26.362-41.715-26.521c-15.021-0.166-30.074,19.225-43.725,26.521h0c-9.361,5.003-19.686,7.94-30.279,8.613
			l0,0c-24.379,1.548-41.97,23.989-37.649,48.033l0,0c9.353,52.05,36.467,99.246,76.72,133.544l20.077,17.107
			c7.982,6.801,19.72,6.801,27.701,0l20.077-17.107c40.254-34.298,67.367-81.494,76.72-133.544v0
			c4.32-24.043-13.27-46.485-37.649-48.033h0C310.828,169.827,300.503,166.89,291.142,161.887z"/>
		<g>
			<g>
				<path style="fill:#182351;" d="M248.319,308.44c-32.658,0-59.228-26.57-59.228-59.228s26.57-59.228,59.228-59.228
					c32.659,0,59.228,26.57,59.228,59.228S280.977,308.44,248.319,308.44z M248.319,202.397c-25.813,0-46.814,21.001-46.814,46.814
					c0,25.813,21,46.814,46.814,46.814c25.814,0,46.814-21,46.814-46.814C295.133,223.398,274.132,202.397,248.319,202.397z"/>
			</g>
		</g>
		<g>
			<path style="fill:#F3CE41;stroke:#131A37;stroke-width:2.3269;stroke-miterlimit:10;" d="M248.319,321.372
				c-39.79,0-72.161-32.371-72.161-72.161c0-39.79,32.371-72.161,72.161-72.161c39.79,0,72.161,32.371,72.161,72.161
				C320.48,289.001,288.108,321.372,248.319,321.372z M248.319,192.175c-31.45,0-57.036,25.586-57.036,57.036
				c0,31.45,25.586,57.036,57.036,57.036c31.45,0,57.036-25.586,57.036-57.036C305.355,217.761,279.769,192.175,248.319,192.175z"/>
		</g>
		<g>
			<path style="fill:#CE4153;" d="M248.319,333.363c-3.508,0-6.813-1.205-9.307-3.394c-24.568-21.561-38.099-50.242-38.099-80.759
				c0.001-30.516,13.531-59.196,38.099-80.758c2.494-2.188,5.799-3.394,9.307-3.394s6.813,1.206,9.307,3.394
				c24.568,21.562,38.099,50.242,38.099,80.758c0,30.517-13.53,59.197-38.099,80.759
				C255.132,332.158,251.827,333.363,248.319,333.363z"/>
			<path style="fill:#131A37;" d="M248.319,166.223c3.091,0,6.181,1.035,8.539,3.104h0c50.27,44.119,50.27,115.65,0,159.768h0
				c-2.358,2.07-5.449,3.104-8.539,3.104c-3.091,0-6.181-1.035-8.54-3.104h0c-50.27-44.119-50.27-115.65,0-159.768h0
				C242.138,167.258,245.228,166.223,248.319,166.223 M248.319,163.896c-3.791,0-7.369,1.308-10.074,3.682
				c-24.824,21.786-38.495,50.777-38.495,81.633c0,30.856,13.671,59.847,38.495,81.633c2.706,2.375,6.284,3.682,10.075,3.682
				s7.369-1.308,10.074-3.682c24.824-21.786,38.495-50.777,38.495-81.633c0-30.856-13.671-59.847-38.494-81.633
				C255.687,165.204,252.11,163.896,248.319,163.896L248.319,163.896z"/>
		</g>
		<g>
			<path style="fill:#BA354B;" d="M256.107,177.549L256.107,177.549c-1.251-1.098-2.73-1.866-4.301-2.325
				c41.609,36.869,41.49,96.358-0.367,133.093l0,0c-3.939,3.457-10.324,3.457-14.263,0l0,0
				c-18.467-16.207-28.806-36.844-31.026-58.013c-0.028,26.399,11.432,52.806,34.382,72.947l0,0c4.301,3.775,11.274,3.775,15.575,0
				l0,0C301.951,283.017,301.951,217.783,256.107,177.549z"/>
		</g>
		<g>
			<defs>
				<path id="SVGID_00000010311398643772818420000012845819458520713629_" d="M256.858,169.327L256.858,169.327
					c-4.716-4.139-12.363-4.139-17.079,0h0c-50.27,44.119-50.27,115.65,0,159.768l0,0c4.716,4.139,12.363,4.139,17.079,0l0,0
					C307.128,284.977,307.128,213.446,256.858,169.327z"/>
			</defs>
			<clipPath id="SVGID_00000060749447415297241160000010258891417058759554_">
				<use xlink:href="#SVGID_00000010311398643772818420000012845819458520713629_"  style="overflow:visible;"/>
			</clipPath>
			<g style="clip-path:url(#SVGID_00000060749447415297241160000010258891417058759554_);">
				<path style="fill:#FCFCFC;stroke:#131A37;stroke-width:2.3269;stroke-miterlimit:10;" d="M248.318,319.51
					c-38.762,0-70.299-31.536-70.299-70.299c0-38.763,31.536-70.298,70.299-70.298c38.764,0,70.3,31.536,70.3,70.298
					C318.618,287.974,287.082,319.51,248.318,319.51z M248.318,190.313c-32.477,0-58.898,26.422-58.898,58.899
					c0,32.477,26.421,58.898,58.898,58.898s58.899-26.421,58.899-58.898C307.218,216.734,280.796,190.313,248.318,190.313z"/>
			</g>
		</g>
		<g>
			<line style="fill:#FCFCFC;" x1="248.318" y1="190.313" x2="248.318" y2="308.11"/>
			<path style="fill:#131A37;" d="M248.318,190.313c0.45,9.816,0.751,19.633,0.904,29.449c0.186,9.816,0.235,19.633,0.258,29.449
				c-0.02,9.816-0.07,19.633-0.255,29.449c-0.152,9.816-0.456,19.633-0.908,29.449c-0.452-9.816-0.756-19.633-0.908-29.449
				c-0.185-9.816-0.234-19.633-0.255-29.449c0.023-9.816,0.073-19.633,0.258-29.449
				C247.567,209.945,247.869,200.129,248.318,190.313z"/>
		</g>
		<g>
			<g>
				<line style="fill:#FCFCFC;" x1="248.318" y1="216.23" x2="248.318" y2="284.759"/>
				<path style="fill:#FCFCFC;" d="M248.318,216.23c1.446,5.711,2.195,11.421,2.735,17.132c0.512,5.711,0.75,11.422,0.754,17.132
					c0.006,5.711-0.233,11.421-0.745,17.132c-0.538,5.711-1.29,11.422-2.745,17.132c-1.455-5.711-2.207-11.422-2.745-17.132
					c-0.511-5.711-0.75-11.421-0.745-17.132c0.004-5.711,0.242-11.421,0.754-17.132C246.123,227.651,246.873,221.941,248.318,216.23
					z"/>
			</g>
			<g>
				<g>
					<line style="fill:#FCFCFC;" x1="257.966" y1="223.052" x2="238.671" y2="223.052"/>
					<path style="fill:#FCFCFC;" d="M257.966,223.052c-1.608,0.801-3.216,1.217-4.824,1.516c-1.608,0.284-3.216,0.416-4.824,0.418
						c-1.608,0.003-3.216-0.129-4.824-0.413c-1.608-0.298-3.216-0.715-4.824-1.521c1.608-0.806,3.216-1.223,4.824-1.521
						c1.608-0.283,3.216-0.416,4.824-0.413c1.608,0.002,3.216,0.134,4.824,0.418C254.75,221.835,256.358,222.251,257.966,223.052z"
						/>
				</g>
				<g>
					<line style="fill:#FCFCFC;" x1="257.966" y1="232.923" x2="238.671" y2="232.923"/>
					<path style="fill:#FCFCFC;" d="M257.966,232.923c-1.608,0.801-3.216,1.217-4.824,1.516c-1.608,0.284-3.216,0.416-4.824,0.418
						c-1.608,0.003-3.216-0.129-4.824-0.413c-1.608-0.298-3.216-0.715-4.824-1.521c1.608-0.806,3.216-1.223,4.824-1.521
						c1.608-0.283,3.216-0.416,4.824-0.413c1.608,0.002,3.216,0.134,4.824,0.418C254.75,231.706,256.358,232.122,257.966,232.923z"
						/>
				</g>
				<g>
					<line style="fill:#FCFCFC;" x1="257.966" y1="242.794" x2="238.671" y2="242.794"/>
					<path style="fill:#FCFCFC;" d="M257.966,242.794c-1.608,0.801-3.216,1.217-4.824,1.516c-1.608,0.284-3.216,0.416-4.824,0.418
						c-1.608,0.003-3.216-0.129-4.824-0.413c-1.608-0.298-3.216-0.715-4.824-1.521c1.608-0.806,3.216-1.223,4.824-1.521
						c1.608-0.283,3.216-0.416,4.824-0.413c1.608,0.002,3.216,0.134,4.824,0.418C254.75,241.577,256.358,241.992,257.966,242.794z"
						/>
				</g>
				<g>
					<line style="fill:#FCFCFC;" x1="257.966" y1="252.664" x2="238.671" y2="252.664"/>
					<path style="fill:#FCFCFC;" d="M257.966,252.664c-1.608,0.801-3.216,1.217-4.824,1.516c-1.608,0.284-3.216,0.416-4.824,0.418
						c-1.608,0.003-3.216-0.129-4.824-0.413c-1.608-0.298-3.216-0.715-4.824-1.521c1.608-0.806,3.216-1.223,4.824-1.521
						c1.608-0.283,3.216-0.416,4.824-0.413c1.608,0.002,3.216,0.134,4.824,0.418C254.75,251.447,256.358,251.863,257.966,252.664z"
						/>
				</g>
				<g>
					<line style="fill:#FCFCFC;" x1="257.966" y1="262.535" x2="238.671" y2="262.535"/>
					<path style="fill:#FCFCFC;" d="M257.966,262.535c-1.608,0.801-3.216,1.217-4.824,1.516c-1.608,0.284-3.216,0.416-4.824,0.418
						c-1.608,0.003-3.216-0.129-4.824-0.413c-1.608-0.298-3.216-0.715-4.824-1.521c1.608-0.806,3.216-1.223,4.824-1.521
						c1.608-0.283,3.216-0.416,4.824-0.413c1.608,0.002,3.216,0.134,4.824,0.418C254.75,261.318,256.358,261.734,257.966,262.535z"
						/>
				</g>
				<g>
					<line style="fill:#FCFCFC;" x1="257.966" y1="272.405" x2="238.671" y2="272.405"/>
					<path style="fill:#FCFCFC;" d="M257.966,272.405c-1.608,0.801-3.216,1.217-4.824,1.516c-1.608,0.284-3.216,0.416-4.824,0.418
						c-1.608,0.003-3.216-0.129-4.824-0.413c-1.608-0.298-3.216-0.715-4.824-1.521c1.608-0.806,3.216-1.223,4.824-1.521
						c1.608-0.283,3.216-0.416,4.824-0.413c1.608,0.002,3.216,0.134,4.824,0.418C254.75,271.189,256.358,271.604,257.966,272.405z"
						/>
				</g>
			</g>
		</g>
		<g>
			<path style="fill:#FCFCFC;" d="M248.318,285.341c-0.266,0-0.498-0.181-0.564-0.438c-0.777-3.052-1.392-6.272-1.925-10.1
				c-0.9-0.073-1.684-0.171-2.435-0.303c-1.366-0.254-3.161-0.661-4.984-1.574c-0.197-0.099-0.321-0.301-0.321-0.521
				c0-0.22,0.124-0.422,0.321-0.521c1.825-0.914,3.619-1.32,4.979-1.572c0.608-0.107,1.228-0.194,1.853-0.262
				c-0.087-0.79-0.172-1.579-0.247-2.369c-0.085-0.956-0.157-1.91-0.226-2.863c-0.469-0.053-0.922-0.109-1.376-0.189
				c-1.367-0.254-3.163-0.662-4.983-1.573c-0.197-0.099-0.321-0.301-0.321-0.521c0-0.22,0.124-0.422,0.321-0.521
				c1.823-0.913,3.618-1.32,4.978-1.573c0.371-0.065,0.739-0.111,1.105-0.153c-0.096-1.91-0.161-3.688-0.198-5.406
				c-0.301-0.034-0.601-0.07-0.901-0.123c-1.367-0.254-3.162-0.661-4.984-1.574c-0.197-0.099-0.321-0.301-0.321-0.521
				c0-0.22,0.124-0.422,0.321-0.52c1.825-0.914,3.619-1.32,4.979-1.572c0.288-0.051,0.574-0.087,0.859-0.12
				c0.001-1.64,0.03-3.423,0.087-5.434c-0.314-0.037-0.628-0.075-0.941-0.131c-1.365-0.253-3.16-0.66-4.983-1.574
				c-0.197-0.099-0.321-0.3-0.321-0.52c0-0.22,0.124-0.421,0.321-0.52c1.824-0.914,3.619-1.321,4.979-1.573
				c0.376-0.066,0.747-0.112,1.118-0.154c0.088-1.74,0.205-3.526,0.347-5.326c-0.476-0.053-0.968-0.117-1.46-0.204
				c-1.365-0.253-3.16-0.66-4.983-1.574c-0.197-0.099-0.321-0.3-0.321-0.52c0-0.22,0.124-0.421,0.321-0.52
				c1.824-0.914,3.619-1.321,4.979-1.573c0.62-0.109,1.246-0.196,1.905-0.265c0.21-1.953,0.415-3.604,0.633-5.112
				c-0.943-0.071-1.76-0.171-2.533-0.307c-1.365-0.253-3.16-0.66-4.983-1.574c-0.197-0.099-0.321-0.3-0.321-0.52
				c0-0.22,0.124-0.421,0.321-0.52c1.824-0.914,3.619-1.321,4.979-1.573c1.027-0.181,2.133-0.299,3.371-0.359
				c0.328-1.693,0.647-3.137,0.995-4.513c0.065-0.258,0.298-0.439,0.564-0.439c0.266,0,0.499,0.181,0.564,0.439
				c0.347,1.371,0.666,2.816,0.996,4.516c1.253,0.062,2.332,0.178,3.366,0.36c1.368,0.255,3.165,0.663,4.981,1.568
				c0.197,0.098,0.322,0.3,0.322,0.521s-0.125,0.422-0.323,0.521c-1.817,0.905-3.613,1.313-4.976,1.566
				c-0.778,0.137-1.597,0.237-2.54,0.31c0.22,1.515,0.42,3.136,0.634,5.121c0.66,0.069,1.286,0.156,1.9,0.265
				c1.367,0.255,3.165,0.663,4.981,1.568c0.197,0.098,0.322,0.3,0.322,0.521c0,0.221-0.125,0.422-0.323,0.521
				c-1.817,0.905-3.613,1.313-4.976,1.566c-0.5,0.088-0.993,0.153-1.466,0.206c0.143,1.806,0.26,3.596,0.348,5.335
				c0.371,0.042,0.741,0.088,1.112,0.154c1.368,0.255,3.164,0.663,4.981,1.567c0.198,0.099,0.323,0.3,0.323,0.521
				s-0.125,0.422-0.323,0.521c-1.817,0.905-3.613,1.313-4.976,1.566c-0.318,0.056-0.634,0.096-0.947,0.132
				c0.059,2.058,0.086,3.8,0.088,5.444c0.285,0.033,0.569,0.069,0.855,0.119c1.367,0.255,3.165,0.663,4.981,1.568
				c0.197,0.099,0.322,0.3,0.322,0.52c0,0.221-0.125,0.422-0.322,0.521c-1.816,0.905-3.613,1.313-4.977,1.567
				c-0.306,0.054-0.607,0.091-0.908,0.125c-0.037,1.722-0.102,3.503-0.198,5.416c0.367,0.043,0.734,0.089,1.102,0.153
				c1.365,0.254,3.159,0.661,4.981,1.568c0.197,0.099,0.322,0.3,0.322,0.521c0,0.221-0.125,0.423-0.323,0.521
				c-1.819,0.906-3.614,1.313-4.976,1.567c-0.463,0.081-0.923,0.139-1.381,0.191c-0.068,0.955-0.14,1.91-0.227,2.866
				c-0.074,0.793-0.16,1.584-0.247,2.376c0.625,0.067,1.244,0.154,1.85,0.261c1.367,0.256,3.165,0.663,4.981,1.568
				c0.197,0.099,0.322,0.3,0.322,0.521s-0.125,0.422-0.322,0.521c-1.816,0.905-3.613,1.313-4.977,1.567
				c-0.748,0.132-1.55,0.232-2.441,0.306c-0.534,3.829-1.148,7.051-1.926,10.104C248.816,285.16,248.584,285.341,248.318,285.341
				L248.318,285.341z"/>
			<path style="fill:#131A37;" d="M248.318,216.23c0.416,1.645,0.762,3.29,1.075,4.935c1.25,0.048,2.499,0.151,3.749,0.372
				c1.608,0.3,3.216,0.715,4.824,1.516c-1.608,0.8-3.216,1.216-4.824,1.516c-1.034,0.182-2.067,0.281-3.101,0.344
				c0.313,2.064,0.556,4.128,0.774,6.192c0.776,0.069,1.551,0.167,2.327,0.303c1.608,0.3,3.216,0.715,4.824,1.516
				c-1.608,0.8-3.216,1.216-4.824,1.516c-0.662,0.117-1.323,0.192-1.985,0.259c0.175,2.125,0.315,4.251,0.417,6.376
				c0.523,0.061,1.045,0.112,1.568,0.204c1.608,0.3,3.216,0.715,4.824,1.516c-1.608,0.8-3.216,1.216-4.824,1.516
				c-0.479,0.085-0.958,0.129-1.438,0.187c0.061,1.999,0.102,3.999,0.103,5.998c0,0.16-0.004,0.32-0.005,0.479
				c0.446,0.056,0.893,0.096,1.339,0.175c1.608,0.3,3.216,0.715,4.824,1.516c-1.608,0.801-3.216,1.216-4.824,1.516
				c-0.458,0.081-0.915,0.122-1.372,0.179c-0.04,2.15-0.123,4.3-0.236,6.451c0.536,0.062,1.072,0.115,1.608,0.21
				c1.608,0.3,3.216,0.715,4.824,1.516c-1.608,0.8-3.216,1.216-4.824,1.516c-0.607,0.107-1.213,0.172-1.82,0.237
				c-0.079,1.113-0.16,2.226-0.26,3.339c-0.093,0.984-0.203,1.968-0.311,2.951c0.797,0.069,1.593,0.171,2.39,0.312
				c1.608,0.3,3.216,0.715,4.824,1.516c-1.608,0.801-3.216,1.216-4.824,1.516c-0.949,0.167-1.898,0.267-2.846,0.333
				c-0.476,3.501-1.086,7.003-1.978,10.505c-0.892-3.5-1.501-7.001-1.977-10.501c-0.949-0.065-1.898-0.164-2.847-0.332
				c-1.608-0.298-3.216-0.715-4.824-1.521c1.608-0.805,3.216-1.222,4.824-1.521c0.796-0.14,1.593-0.243,2.389-0.311
				c-0.108-0.982-0.218-1.965-0.31-2.947c-0.099-1.111-0.18-2.223-0.259-3.334c-0.607-0.065-1.214-0.13-1.82-0.237
				c-1.608-0.298-3.216-0.715-4.824-1.521c1.608-0.806,3.216-1.223,4.824-1.521c0.536-0.094,1.072-0.148,1.608-0.209
				c-0.112-2.147-0.196-4.294-0.236-6.441c-0.458-0.057-0.915-0.098-1.372-0.178c-1.608-0.299-3.216-0.715-4.824-1.521
				c1.608-0.805,3.216-1.222,4.824-1.521c0.446-0.079,0.893-0.118,1.339-0.174c0-0.158-0.005-0.316-0.005-0.475
				c0.001-1.998,0.043-3.995,0.103-5.993c-0.479-0.058-0.958-0.103-1.438-0.187c-1.608-0.298-3.216-0.715-4.824-1.521
				c1.608-0.806,3.216-1.223,4.824-1.521c0.523-0.092,1.045-0.143,1.568-0.204c0.102-2.122,0.242-4.244,0.416-6.367
				c-0.661-0.067-1.323-0.142-1.984-0.258c-1.608-0.299-3.216-0.715-4.824-1.521c1.608-0.806,3.216-1.223,4.824-1.521
				c0.776-0.137,1.551-0.235,2.327-0.303c0.218-2.061,0.461-4.123,0.773-6.184c-1.033-0.062-2.067-0.16-3.1-0.342
				c-1.608-0.298-3.216-0.715-4.824-1.521c1.608-0.806,3.216-1.223,4.824-1.521c1.25-0.22,2.499-0.324,3.749-0.369
				C247.556,219.518,247.902,217.874,248.318,216.23 M248.318,215.066c-0.533,0-0.997,0.362-1.128,0.878
				c-0.32,1.262-0.615,2.583-0.915,4.1c-1.082,0.067-2.065,0.179-2.983,0.341c-1.408,0.261-3.255,0.68-5.143,1.627
				c-0.394,0.197-0.642,0.6-0.642,1.04s0.249,0.843,0.642,1.04c1.888,0.946,3.735,1.365,5.132,1.625
				c0.626,0.11,1.272,0.197,1.982,0.264c-0.171,1.225-0.331,2.535-0.499,4.058c-0.505,0.061-0.997,0.133-1.473,0.217
				c-1.408,0.261-3.255,0.68-5.143,1.626c-0.394,0.197-0.642,0.6-0.642,1.04c0,0.44,0.249,0.843,0.642,1.04
				c1.888,0.946,3.735,1.365,5.132,1.625c0.322,0.057,0.639,0.104,0.948,0.144c-0.11,1.446-0.204,2.884-0.28,4.296
				c-0.217,0.028-0.436,0.06-0.658,0.099c-1.408,0.261-3.255,0.681-5.143,1.627c-0.394,0.197-0.642,0.6-0.642,1.04
				s0.249,0.843,0.642,1.04c1.889,0.946,3.735,1.365,5.132,1.625c0.155,0.027,0.307,0.051,0.457,0.071
				c-0.043,1.615-0.066,3.047-0.072,4.409c-0.125,0.017-0.249,0.037-0.374,0.059c-1.408,0.261-3.254,0.68-5.143,1.626
				c-0.394,0.197-0.642,0.6-0.642,1.04c0,0.44,0.249,0.843,0.642,1.04c1.888,0.946,3.735,1.365,5.132,1.625
				c0.149,0.026,0.297,0.049,0.443,0.069c0.035,1.401,0.088,2.848,0.161,4.379c-0.196,0.026-0.394,0.056-0.594,0.091
				c-1.408,0.261-3.254,0.68-5.143,1.626c-0.394,0.197-0.642,0.6-0.642,1.04s0.249,0.843,0.642,1.04
				c1.889,0.946,3.735,1.365,5.132,1.625c0.32,0.057,0.633,0.101,0.941,0.14c0.058,0.797,0.12,1.594,0.191,2.391
				c0.057,0.605,0.12,1.208,0.186,1.81c-0.441,0.056-0.878,0.122-1.308,0.198c-1.408,0.261-3.254,0.68-5.143,1.626
				c-0.394,0.197-0.642,0.6-0.642,1.04c0,0.44,0.249,0.843,0.642,1.04c1.888,0.946,3.735,1.365,5.132,1.625
				c0.636,0.112,1.307,0.202,2.036,0.271c0.522,3.649,1.121,6.754,1.873,9.704c0.131,0.516,0.596,0.876,1.128,0.876
				c0.532,0,0.996-0.361,1.128-0.876c0.752-2.951,1.352-6.057,1.874-9.709c0.729-0.07,1.397-0.159,2.025-0.27
				c1.41-0.263,3.257-0.682,5.14-1.62c0.395-0.197,0.645-0.6,0.645-1.042c0-0.441-0.25-0.845-0.645-1.042
				c-1.884-0.938-3.73-1.357-5.129-1.618c-0.436-0.077-0.876-0.144-1.32-0.201c0.065-0.603,0.129-1.207,0.186-1.81
				c0.072-0.802,0.134-1.602,0.192-2.401c0.307-0.039,0.617-0.083,0.931-0.138c1.41-0.263,3.256-0.682,5.14-1.62
				c0.395-0.197,0.645-0.6,0.645-1.042c0-0.441-0.25-0.845-0.645-1.042c-1.884-0.938-3.73-1.357-5.129-1.618
				c-0.205-0.036-0.407-0.067-0.605-0.093c0.073-1.534,0.126-2.984,0.161-4.389c0.144-0.02,0.289-0.042,0.433-0.067
				c1.41-0.263,3.256-0.682,5.14-1.62c0.395-0.197,0.645-0.6,0.645-1.042c0-0.441-0.25-0.845-0.645-1.041
				c-1.884-0.938-3.73-1.357-5.129-1.618c-0.13-0.023-0.258-0.043-0.385-0.061c-0.006-1.365-0.029-2.8-0.072-4.419
				c0.147-0.02,0.296-0.043,0.447-0.07c1.41-0.263,3.256-0.682,5.14-1.62c0.395-0.197,0.645-0.6,0.645-1.042
				c0-0.441-0.25-0.845-0.645-1.042c-1.883-0.938-3.73-1.357-5.129-1.618c-0.228-0.04-0.45-0.073-0.669-0.101
				c-0.076-1.414-0.169-2.855-0.28-4.306c0.308-0.04,0.622-0.087,0.938-0.143c1.41-0.263,3.257-0.682,5.14-1.62
				c0.395-0.197,0.645-0.6,0.645-1.042c0-0.441-0.25-0.845-0.645-1.042c-1.883-0.938-3.73-1.357-5.129-1.618
				c-0.489-0.086-0.979-0.159-1.484-0.22c-0.168-1.527-0.329-2.84-0.5-4.067c0.711-0.068,1.355-0.154,1.972-0.263
				c1.41-0.263,3.256-0.682,5.14-1.62c0.395-0.197,0.645-0.6,0.645-1.042c0-0.441-0.25-0.845-0.645-1.042
				c-1.883-0.938-3.73-1.357-5.129-1.618c-0.938-0.166-1.904-0.277-2.993-0.345c-0.301-1.518-0.596-2.84-0.916-4.103
				C249.316,215.428,248.851,215.066,248.318,215.066L248.318,215.066z"/>
		</g>
		<g>
			<g>
				<g>
					<line style="fill:#FCFCFC;" x1="257.966" y1="223.052" x2="238.671" y2="223.052"/>
					<path style="fill:#131A37;" d="M257.966,223.052c-3.216,0.343-6.432,0.422-9.647,0.436c-3.216-0.012-6.432-0.091-9.647-0.436
						c3.216-0.345,6.432-0.424,9.647-0.436C251.534,222.63,254.75,222.709,257.966,223.052z"/>
				</g>
				<g>
					<path style="fill:#FCFCFC;" d="M257.966,223.052c-1.608,0.801-3.216,1.216-4.824,1.516c-1.608,0.284-3.216,0.416-4.824,0.418
						c-1.608,0.003-3.216-0.129-4.824-0.413c-1.608-0.298-3.216-0.715-4.824-1.521c1.608-0.806,3.216-1.223,4.824-1.521
						c1.608-0.283,3.216-0.416,4.824-0.413c1.608,0.002,3.216,0.134,4.824,0.418C254.75,221.836,256.358,222.252,257.966,223.052z"
						/>
					<path style="fill:#131A37;" d="M257.966,223.052c-1.439,0.831-3.054,1.328-4.674,1.704c-1.635,0.343-3.301,0.521-4.973,0.564
						c-1.674,0.055-3.351-0.096-5.008-0.378c-1.647-0.294-3.301-0.742-4.834-1.5c-0.215-0.106-0.303-0.367-0.197-0.582
						c0.044-0.089,0.115-0.156,0.197-0.197c1.532-0.759,3.187-1.206,4.834-1.5c1.658-0.281,3.334-0.435,5.008-0.379
						c1.672,0.043,3.339,0.222,4.974,0.564C254.912,221.723,256.527,222.221,257.966,223.052z M257.966,223.052
						c-1.525-0.652-3.126-1.053-4.753-1.284c-1.619-0.251-3.261-0.352-4.896-0.314c-3.245,0.092-6.578,0.545-9.451,1.988v-0.779
						c2.872,1.445,6.206,1.895,9.451,1.989c1.635,0.038,3.277-0.064,4.896-0.314C254.84,224.106,256.442,223.705,257.966,223.052z"
						/>
				</g>
			</g>
			<g>
				<g>
					<line style="fill:#FCFCFC;" x1="257.966" y1="232.923" x2="238.671" y2="232.923"/>
					<path style="fill:#131A37;" d="M257.966,232.923c-3.216,0.343-6.432,0.422-9.647,0.436c-3.216-0.012-6.432-0.091-9.647-0.436
						c3.216-0.345,6.432-0.424,9.647-0.436C251.534,232.501,254.75,232.58,257.966,232.923z"/>
				</g>
				<g>
					<path style="fill:#FCFCFC;" d="M257.966,232.923c-1.608,0.8-3.216,1.216-4.824,1.516c-1.608,0.284-3.216,0.416-4.824,0.418
						c-1.608,0.003-3.216-0.129-4.824-0.413c-1.608-0.299-3.216-0.715-4.824-1.521c1.608-0.806,3.216-1.222,4.824-1.521
						c1.608-0.283,3.216-0.416,4.824-0.413c1.608,0.002,3.216,0.134,4.824,0.418C254.75,231.707,256.358,232.122,257.966,232.923z"
						/>
					<path style="fill:#131A37;" d="M257.966,232.923c-1.439,0.831-3.054,1.328-4.674,1.704c-1.635,0.343-3.301,0.521-4.973,0.564
						c-1.674,0.055-3.351-0.097-5.008-0.379c-1.647-0.293-3.301-0.742-4.834-1.499c-0.215-0.106-0.303-0.367-0.197-0.582
						c0.044-0.089,0.115-0.156,0.197-0.197c1.532-0.759,3.187-1.206,4.834-1.5c1.658-0.281,3.334-0.435,5.008-0.379
						c1.672,0.043,3.339,0.222,4.974,0.564C254.912,231.594,256.527,232.092,257.966,232.923z M257.966,232.923
						c-1.525-0.652-3.126-1.053-4.753-1.284c-1.619-0.251-3.261-0.352-4.896-0.314c-3.245,0.092-6.578,0.545-9.451,1.988v-0.779
						c2.872,1.445,6.206,1.895,9.451,1.989c1.635,0.038,3.277-0.064,4.896-0.314C254.84,233.977,256.442,233.575,257.966,232.923z"
						/>
				</g>
			</g>
			<g>
				<g>
					<line style="fill:#FCFCFC;" x1="257.966" y1="242.794" x2="238.671" y2="242.794"/>
					<path style="fill:#131A37;" d="M257.966,242.794c-3.216,0.343-6.432,0.422-9.647,0.436c-3.216-0.012-6.432-0.091-9.647-0.436
						c3.216-0.345,6.432-0.424,9.647-0.436C251.534,242.372,254.75,242.45,257.966,242.794z"/>
				</g>
				<g>
					<path style="fill:#FCFCFC;" d="M257.966,242.794c-1.608,0.8-3.216,1.216-4.824,1.516c-1.608,0.284-3.216,0.416-4.824,0.418
						c-1.608,0.003-3.216-0.129-4.824-0.413c-1.608-0.298-3.216-0.715-4.824-1.521c1.608-0.806,3.216-1.223,4.824-1.521
						c1.608-0.283,3.216-0.416,4.824-0.413c1.608,0.002,3.216,0.134,4.824,0.418C254.75,241.577,256.358,241.993,257.966,242.794z"
						/>
					<path style="fill:#131A37;" d="M257.966,242.794c-1.439,0.831-3.054,1.328-4.674,1.704c-1.635,0.343-3.301,0.521-4.973,0.564
						c-1.674,0.055-3.351-0.096-5.008-0.379c-1.647-0.293-3.301-0.742-4.834-1.499c-0.215-0.106-0.303-0.367-0.197-0.582
						c0.044-0.089,0.115-0.156,0.197-0.197c1.532-0.759,3.187-1.206,4.834-1.5c1.658-0.281,3.334-0.435,5.008-0.379
						c1.672,0.043,3.339,0.222,4.974,0.564C254.912,241.465,256.527,241.962,257.966,242.794z M257.966,242.794
						c-1.525-0.652-3.126-1.053-4.753-1.284c-1.619-0.251-3.261-0.352-4.896-0.314c-3.245,0.092-6.578,0.545-9.451,1.988v-0.779
						c2.872,1.445,6.206,1.895,9.451,1.989c1.635,0.038,3.277-0.064,4.896-0.314C254.84,243.847,256.442,243.446,257.966,242.794z"
						/>
				</g>
			</g>
			<g>
				<g>
					<line style="fill:#FCFCFC;" x1="257.966" y1="252.664" x2="238.671" y2="252.664"/>
					<path style="fill:#131A37;" d="M257.966,252.664c-3.216,0.343-6.432,0.422-9.647,0.436c-3.216-0.012-6.432-0.091-9.647-0.436
						c3.216-0.345,6.432-0.424,9.647-0.436C251.534,252.242,254.75,252.321,257.966,252.664z"/>
				</g>
				<g>
					<path style="fill:#FCFCFC;" d="M257.966,252.664c-1.608,0.801-3.216,1.216-4.824,1.516c-1.608,0.284-3.216,0.416-4.824,0.418
						c-1.608,0.003-3.216-0.129-4.824-0.413c-1.608-0.299-3.216-0.715-4.824-1.521c1.608-0.805,3.216-1.222,4.824-1.521
						c1.608-0.283,3.216-0.416,4.824-0.413c1.608,0.002,3.216,0.134,4.824,0.418C254.75,251.448,256.358,251.864,257.966,252.664z"
						/>
					<path style="fill:#131A37;" d="M257.966,252.664c-1.439,0.831-3.054,1.328-4.674,1.704c-1.635,0.343-3.301,0.521-4.973,0.564
						c-1.674,0.055-3.351-0.096-5.008-0.379c-1.647-0.293-3.301-0.742-4.834-1.499c-0.215-0.106-0.303-0.367-0.197-0.582
						c0.044-0.089,0.115-0.156,0.197-0.197c1.532-0.759,3.187-1.206,4.834-1.5c1.658-0.281,3.334-0.435,5.008-0.379
						c1.672,0.043,3.339,0.222,4.974,0.564C254.912,251.335,256.527,251.833,257.966,252.664z M257.966,252.664
						c-1.525-0.652-3.126-1.053-4.753-1.284c-1.619-0.251-3.261-0.352-4.896-0.314c-3.245,0.092-6.578,0.545-9.451,1.988v-0.779
						c2.872,1.445,6.206,1.895,9.451,1.989c1.635,0.038,3.277-0.064,4.896-0.314C254.84,253.718,256.442,253.316,257.966,252.664z"
						/>
				</g>
			</g>
			<g>
				<g>
					<line style="fill:#FCFCFC;" x1="257.966" y1="262.535" x2="238.671" y2="262.535"/>
					<path style="fill:#131A37;" d="M257.966,262.535c-3.216,0.343-6.432,0.422-9.647,0.436c-3.216-0.012-6.432-0.091-9.647-0.436
						c3.216-0.345,6.432-0.424,9.647-0.436C251.534,262.113,254.75,262.192,257.966,262.535z"/>
				</g>
				<g>
					<path style="fill:#FCFCFC;" d="M257.966,262.535c-1.608,0.801-3.216,1.216-4.824,1.516c-1.608,0.284-3.216,0.416-4.824,0.418
						c-1.608,0.003-3.216-0.129-4.824-0.413c-1.608-0.298-3.216-0.715-4.824-1.521c1.608-0.806,3.216-1.223,4.824-1.521
						c1.608-0.283,3.216-0.416,4.824-0.413c1.608,0.002,3.216,0.134,4.824,0.418C254.75,261.319,256.358,261.734,257.966,262.535z"
						/>
					<path style="fill:#131A37;" d="M257.966,262.535c-1.439,0.831-3.054,1.328-4.674,1.704c-1.635,0.343-3.301,0.521-4.973,0.564
						c-1.674,0.055-3.351-0.097-5.008-0.379c-1.647-0.294-3.301-0.742-4.834-1.5c-0.215-0.106-0.303-0.367-0.197-0.582
						c0.044-0.089,0.115-0.156,0.197-0.197c1.532-0.759,3.187-1.206,4.834-1.5c1.658-0.281,3.334-0.435,5.008-0.379
						c1.672,0.043,3.339,0.222,4.974,0.564C254.912,261.206,256.527,261.704,257.966,262.535z M257.966,262.535
						c-1.525-0.652-3.126-1.053-4.753-1.284c-1.619-0.251-3.261-0.352-4.896-0.314c-3.245,0.092-6.578,0.545-9.451,1.988v-0.779
						c2.872,1.445,6.206,1.895,9.451,1.989c1.635,0.038,3.277-0.064,4.896-0.314C254.84,263.589,256.442,263.187,257.966,262.535z"
						/>
				</g>
			</g>
			<g>
				<g>
					<line style="fill:#FCFCFC;" x1="257.966" y1="272.405" x2="238.671" y2="272.405"/>
					<path style="fill:#131A37;" d="M257.966,272.405c-3.216,0.343-6.432,0.422-9.647,0.436c-3.216-0.012-6.432-0.091-9.647-0.436
						c3.216-0.345,6.432-0.424,9.647-0.436C251.534,271.983,254.75,272.062,257.966,272.405z"/>
				</g>
				<g>
					<path style="fill:#FCFCFC;" d="M257.966,272.405c-1.608,0.8-3.216,1.216-4.824,1.516c-1.608,0.284-3.216,0.416-4.824,0.418
						c-1.608,0.003-3.216-0.129-4.824-0.413c-1.608-0.298-3.216-0.715-4.824-1.521c1.608-0.806,3.216-1.222,4.824-1.521
						c1.608-0.283,3.216-0.416,4.824-0.413c1.608,0.002,3.216,0.134,4.824,0.418C254.75,271.19,256.358,271.605,257.966,272.405z"/>
					<path style="fill:#131A37;" d="M257.966,272.405c-1.439,0.831-3.054,1.328-4.674,1.704c-1.635,0.343-3.301,0.521-4.973,0.564
						c-1.674,0.055-3.351-0.096-5.008-0.378c-1.647-0.294-3.301-0.742-4.834-1.5c-0.215-0.106-0.303-0.367-0.197-0.582
						c0.044-0.089,0.115-0.156,0.197-0.197c1.532-0.759,3.187-1.207,4.834-1.5c1.658-0.281,3.334-0.435,5.008-0.379
						c1.672,0.043,3.339,0.223,4.974,0.564C254.912,271.077,256.527,271.574,257.966,272.405z M257.966,272.405
						c-1.525-0.652-3.126-1.053-4.753-1.284c-1.619-0.251-3.261-0.352-4.896-0.314c-3.245,0.092-6.578,0.545-9.451,1.988v-0.779
						c2.872,1.445,6.206,1.895,9.451,1.989c1.635,0.038,3.277-0.064,4.896-0.314C254.84,273.459,256.442,273.058,257.966,272.405z"
						/>
				</g>
			</g>
		</g>
		<g>
			<g>
				<g>
					<polygon style="fill:#CE4153;" points="199.963,199.269 202.832,200.249 205.266,198.442 205.221,201.473 207.692,203.229 
						204.795,204.123 203.889,207.016 202.144,204.536 199.112,204.568 200.931,202.143 					"/>
				</g>
				<g>
					<polygon style="fill:#CE4153;" points="186.786,216.377 189.791,216.777 191.824,214.527 192.373,217.509 195.14,218.748 
						192.473,220.191 192.15,223.206 189.954,221.115 186.987,221.74 188.296,219.005 					"/>
				</g>
				<g>
					<polygon style="fill:#CE4153;" points="180.377,237.921 183.396,237.648 184.883,235.005 186.076,237.793 189.048,238.39 
						186.766,240.386 187.117,243.397 184.513,241.844 181.757,243.108 182.43,240.152 					"/>
				</g>
				<g>
					<polygon style="fill:#CE4153;" points="180.627,261.725 183.454,260.628 184.152,257.677 186.069,260.026 189.091,259.779 
						187.449,262.328 188.618,265.125 185.687,264.351 183.388,266.328 183.217,263.301 					"/>
				</g>
				<g>
					<polygon style="fill:#CE4153;" points="188.323,283.338 190.472,281.199 189.929,278.217 192.627,279.6 195.296,278.161 
						194.814,281.155 197.007,283.248 194.011,283.715 192.698,286.448 191.328,283.743 					"/>
				</g>
				<g>
					<polygon style="fill:#CE4153;" points="200.505,298.642 202.654,296.503 202.111,293.52 204.809,294.903 207.478,293.465 
						206.996,296.458 209.189,298.552 206.193,299.019 204.88,301.751 203.51,299.046 					"/>
				</g>
			</g>
			<g>
				<g>
					<polygon style="fill:#CE4153;" points="296.059,199.269 293.19,200.249 290.756,198.442 290.801,201.473 288.33,203.229 
						291.227,204.123 292.134,207.016 293.879,204.536 296.91,204.568 295.092,202.143 					"/>
				</g>
				<g>
					<polygon style="fill:#CE4153;" points="309.237,216.377 306.231,216.777 304.198,214.527 303.65,217.509 300.882,218.748 
						303.549,220.191 303.872,223.206 306.068,221.115 309.035,221.74 307.726,219.005 					"/>
				</g>
				<g>
					<polygon style="fill:#CE4153;" points="315.646,237.921 312.626,237.648 311.14,235.005 309.947,237.793 306.974,238.39 
						309.256,240.386 308.906,243.397 311.509,241.844 314.265,243.108 313.592,240.152 					"/>
				</g>
				<g>
					<polygon style="fill:#CE4153;" points="315.395,261.725 312.569,260.628 311.87,257.677 309.953,260.026 306.932,259.779 
						308.573,262.328 307.404,265.125 310.335,264.351 312.634,266.328 312.805,263.301 					"/>
				</g>
				<g>
					<polygon style="fill:#CE4153;" points="307.699,283.338 305.55,281.199 306.093,278.217 303.395,279.6 300.727,278.161 
						301.208,281.155 299.016,283.248 302.011,283.715 303.325,286.448 304.694,283.743 					"/>
				</g>
				<g>
					<polygon style="fill:#CE4153;" points="295.517,298.642 293.368,296.503 293.911,293.52 291.213,294.903 288.544,293.465 
						289.026,296.458 286.833,298.552 289.829,299.019 291.142,301.751 292.512,299.046 					"/>
				</g>
			</g>
		</g>
		<g>
			<g>
				<path style="fill:#CE4153;" d="M242.671,160.493c-0.203,0-0.405-0.063-0.575-0.187c-0.302-0.219-0.453-0.59-0.39-0.958
					l0.992-5.781l-4.2-4.094c-0.267-0.26-0.363-0.649-0.248-1.004c0.115-0.354,0.421-0.612,0.79-0.666l5.804-0.844l2.595-5.259
					c0.165-0.335,0.505-0.546,0.878-0.546c0.372,0,0.713,0.211,0.878,0.546l2.596,5.259l5.804,0.844
					c0.369,0.054,0.676,0.312,0.79,0.666c0.115,0.355,0.02,0.744-0.247,1.004l-4.2,4.094l0.991,5.781
					c0.064,0.367-0.088,0.739-0.39,0.958c-0.17,0.124-0.372,0.187-0.575,0.187c-0.156,0-0.313-0.037-0.455-0.112l-5.192-2.73
					l-5.191,2.73C242.983,160.456,242.827,160.493,242.671,160.493z"/>
				<g>
					<path style="fill:#FFFFFF;" d="M248.318,142.134l2.824,5.721l6.314,0.917l-4.569,4.453l1.079,6.288l-5.647-2.969l-5.647,2.969
						l1.078-6.288l-4.569-4.453l6.314-0.917L248.318,142.134 M248.318,140.176c-0.745,0-1.426,0.423-1.756,1.092l-2.368,4.798
						l-5.295,0.769c-0.738,0.107-1.35,0.624-1.581,1.333s-0.038,1.487,0.495,2.007l3.831,3.735l-0.904,5.273
						c-0.126,0.735,0.176,1.477,0.779,1.915c0.341,0.248,0.745,0.374,1.151,0.374c0.312,0,0.624-0.074,0.911-0.225l4.736-2.49
						l4.736,2.49c0.286,0.151,0.599,0.225,0.911,0.225c0.406,0,0.81-0.126,1.151-0.374c0.603-0.438,0.905-1.18,0.779-1.915
						l-0.905-5.273l3.831-3.735c0.534-0.52,0.726-1.298,0.495-2.007c-0.23-0.709-0.843-1.225-1.581-1.333l-5.295-0.769l-2.368-4.798
						C249.744,140.599,249.063,140.176,248.318,140.176L248.318,140.176z"/>
				</g>
			</g>
			<polygon style="fill:#AD2A40;" points="245.495,147.855 239.181,148.773 243.749,153.226 242.671,159.514 248.318,156.545 
				248.318,142.134 			"/>
		</g>
		<g>
			
				<path style="fill:none;stroke:#FFFFFF;stroke-width:2.472;stroke-linecap:round;stroke-linejoin:round;stroke-miterlimit:10;" d="
				M157.22,224.911c0.276,1.534,0.57,3.063,0.883,4.586c0.67,3.26,1.424,6.495,2.262,9.702"/>
			
				<path style="fill:none;stroke:#FFFFFF;stroke-width:2.472;stroke-linecap:round;stroke-linejoin:round;stroke-miterlimit:10;" d="
				M170.215,191.947c-0.024,0.018-0.048,0.036-0.071,0.054c-3.157,2.378-5.784,5.387-7.911,8.717l-1.868,2.924"/>
		</g>
		<g>
			
				<path style="fill:none;stroke:#FFFFFF;stroke-width:2.472;stroke-linecap:round;stroke-linejoin:round;stroke-miterlimit:10;" d="
				M340.162,224.911c-0.276,1.534-0.57,3.063-0.883,4.586c-0.669,3.26-1.424,6.495-2.262,9.702"/>
			
				<path style="fill:none;stroke:#FFFFFF;stroke-width:2.472;stroke-linecap:round;stroke-linejoin:round;stroke-miterlimit:10;" d="
				M327.167,191.947c0.024,0.018,0.048,0.036,0.072,0.054c3.157,2.378,5.784,5.387,7.911,8.717l1.868,2.924"/>
		</g>
		<g>
			<defs>
				
					<ellipse id="SVGID_00000056386924934577691060000012451247168721725349_" transform="matrix(0.7071 -0.7071 0.7071 0.7071 -103.4882 248.5802)" cx="248.319" cy="249.211" rx="55.958" ry="55.958"/>
			</defs>
			<clipPath id="SVGID_00000145743246522217529750000012616586000783035530_">
				<use xlink:href="#SVGID_00000056386924934577691060000012451247168721725349_"  style="overflow:visible;"/>
			</clipPath>
			<path style="clip-path:url(#SVGID_00000145743246522217529750000012616586000783035530_);fill:#FCFCFC;" d="M296.509,283.071
				l8.275-16.814c-37.224-4.679-74.886-4.719-112.118-0.122l8.283,16.832C232.716,279.636,264.747,279.67,296.509,283.071z"/>
			
				<path style="clip-path:url(#SVGID_00000145743246522217529750000012616586000783035530_);fill:#FCFCFC;stroke:#131A37;stroke-width:2.3269;stroke-miterlimit:10;" d="
				M296.509,283.071l8.275-16.814c-37.224-4.679-74.886-4.719-112.118-0.122l8.283,16.832
				C232.716,279.636,264.747,279.67,296.509,283.071z"/>
		</g>
		<g>
			<path style="fill:none;stroke:#131A37;stroke-width:2.3269;stroke-miterlimit:10;" d="M293.774,283.627
				c7.265-9.572,11.581-21.499,11.581-34.416c0-14.758-5.634-28.224-14.863-38.361"/>
			<path style="fill:none;stroke:#131A37;stroke-width:2.3269;stroke-miterlimit:10;" d="M206.149,210.847
				c-9.231,10.138-14.866,23.605-14.866,38.364c0,13.23,4.528,25.423,12.116,35.11"/>
		</g>
		<g>
			<path style="fill:#131A37;" d="M344.405,339.538c-62.706-18.593-129.468-18.593-192.174,0c-1.243,0.368-2.568-0.205-3.109-1.354
				c-6.143-13.076-12.531-26.057-19.162-38.938c-0.712-1.378,0.185-3.11,1.913-3.657c75.777-23.977,157.113-23.977,232.89,0
				c1.727,0.546,2.625,2.279,1.913,3.657c-6.631,12.88-13.019,25.862-19.162,38.938
				C346.973,339.333,345.649,339.906,344.405,339.538z"/>
			<g>
				<path style="fill:#182351;" d="M141.278,314.092c3.123,6.448,6.186,12.919,9.189,19.412c0.52,1.123,1.818,1.688,3.046,1.334
					c61.939-17.862,127.673-17.862,189.611,0c1.228,0.354,2.526-0.211,3.047-1.334c3.003-6.494,6.066-12.965,9.188-19.412
					C285.6,292.727,211.037,292.727,141.278,314.092z"/>
			</g>
			<g>
				<path style="fill:#FCFCFC;" d="M191.964,286.325c-2.789,0.652-5.582,1.246-8.364,1.912c-2.812,0.483-5.619,0.999-8.423,1.546
					c-5.605,1.097-11.192,2.321-16.756,3.672c-5.564,1.351-11.105,2.83-16.618,4.436c-0.662,0.198-1.439,0.411-2.004,0.601
					c-0.515,0.204-0.956,0.575-1.196,1.035c-0.241,0.456-0.289,0.976-0.122,1.429c0.185,0.453,0.594,1.06,0.835,1.603
					c0.985,2.3,2.006,4.582,2.941,6.905c-1.388-2.106-2.706-4.246-4.081-6.36c-0.166-0.267-0.308-0.546-0.449-0.824
					c-0.138-0.29-0.294-0.517-0.447-0.9c-0.268-0.718-0.196-1.548,0.187-2.267c0.376-0.722,1.08-1.323,1.9-1.644
					c0.798-0.27,1.411-0.426,2.126-0.643c5.529-1.611,11.087-3.093,16.667-4.449c5.58-1.355,11.183-2.583,16.805-3.683
					c2.81-0.551,5.626-1.071,8.445-1.558C186.261,286.829,189.106,286.516,191.964,286.325z"/>
			</g>
			<g>
				<path style="fill:#FCFCFC;" d="M305.219,286.325c2.789,0.652,5.582,1.246,8.364,1.912c2.812,0.483,5.619,0.999,8.422,1.546
					c5.605,1.097,11.192,2.321,16.756,3.672c5.564,1.351,11.105,2.83,16.618,4.436c0.662,0.198,1.439,0.411,2.004,0.601
					c0.515,0.204,0.956,0.575,1.196,1.035c0.241,0.456,0.289,0.976,0.122,1.429c-0.185,0.453-0.594,1.06-0.835,1.603
					c-0.985,2.3-2.006,4.582-2.941,6.905c1.388-2.106,2.706-4.246,4.081-6.36c0.166-0.267,0.308-0.546,0.449-0.824
					c0.138-0.29,0.293-0.517,0.447-0.9c0.268-0.718,0.197-1.548-0.186-2.267c-0.376-0.722-1.08-1.323-1.901-1.644
					c-0.798-0.27-1.411-0.426-2.126-0.643c-5.53-1.611-11.087-3.093-16.667-4.449c-5.58-1.355-11.183-2.583-16.805-3.683
					c-2.81-0.551-5.626-1.071-8.445-1.558C310.922,286.829,308.077,286.516,305.219,286.325z"/>
			</g>
		</g>
		<g>
			<g>
				<path style="fill:#F3CE41;" d="M159.407,264.521c-0.152,0-0.304-0.048-0.432-0.141c-0.226-0.164-0.339-0.442-0.292-0.718
					l0.693-4.04l-2.935-2.861c-0.2-0.194-0.272-0.486-0.186-0.752c0.086-0.266,0.316-0.46,0.593-0.5l4.056-0.59l1.814-3.676
					c0.124-0.25,0.379-0.409,0.658-0.409s0.535,0.159,0.658,0.409l1.814,3.676l4.056,0.59c0.277,0.04,0.506,0.234,0.593,0.5
					c0.086,0.266,0.015,0.558-0.186,0.752l-2.935,2.861l0.692,4.04c0.047,0.275-0.066,0.554-0.292,0.718
					c-0.128,0.093-0.279,0.141-0.432,0.141c-0.117,0-0.234-0.028-0.342-0.085l-3.628-1.907l-3.628,1.908
					C159.642,264.492,159.524,264.521,159.407,264.521z"/>
				<g>
					<path style="fill:#FFFFFF;" d="M163.377,251.568l1.985,4.022l4.439,0.645l-3.212,3.131l0.758,4.421l-3.97-2.087l-3.97,2.087
						l0.758-4.421l-3.212-3.131l4.439-0.645L163.377,251.568 M163.377,250.1c-0.559,0-1.069,0.317-1.317,0.819l-1.643,3.33
						l-3.675,0.534c-0.553,0.08-1.013,0.468-1.185,0.999c-0.173,0.532-0.029,1.115,0.372,1.505l2.659,2.592l-0.628,3.66
						c-0.095,0.551,0.132,1.108,0.584,1.436c0.256,0.186,0.559,0.281,0.863,0.281c0.234,0,0.468-0.056,0.683-0.169l3.287-1.728
						l3.287,1.728c0.215,0.113,0.449,0.169,0.683,0.169c0.305,0,0.607-0.095,0.863-0.281c0.452-0.328,0.679-0.885,0.584-1.436
						l-0.628-3.66l2.659-2.592c0.4-0.39,0.544-0.974,0.372-1.505c-0.173-0.532-0.632-0.919-1.186-0.999l-3.674-0.534l-1.643-3.33
						C164.447,250.417,163.936,250.1,163.377,250.1L163.377,250.1z"/>
				</g>
			</g>
			<polygon style="fill:#D8AE2B;" points="165.362,255.59 169.801,256.235 166.589,259.366 167.347,263.786 163.377,261.699 
				163.377,251.568 			"/>
		</g>
		<g>
			<g>
				<path style="fill:#F3CE41;" d="M328.671,264.521c-0.152,0-0.304-0.048-0.432-0.141c-0.227-0.164-0.339-0.442-0.292-0.718
					l0.693-4.04l-2.936-2.861c-0.2-0.194-0.271-0.486-0.186-0.752c0.086-0.266,0.316-0.46,0.593-0.5l4.057-0.59l1.814-3.676
					c0.123-0.25,0.379-0.409,0.658-0.409s0.534,0.159,0.658,0.409l1.814,3.676l4.057,0.59c0.276,0.04,0.507,0.234,0.593,0.5
					c0.086,0.266,0.015,0.558-0.186,0.752l-2.935,2.861l0.693,4.04c0.047,0.275-0.065,0.554-0.292,0.718
					c-0.128,0.093-0.279,0.141-0.432,0.141c-0.117,0-0.234-0.028-0.342-0.084l-3.629-1.908l-3.628,1.907
					C328.905,264.492,328.788,264.521,328.671,264.521z"/>
				<g>
					<path style="fill:#FFFFFF;" d="M332.641,251.568l1.985,4.022l4.438,0.645l-3.212,3.131l0.758,4.421l-3.97-2.087l-3.97,2.087
						l0.758-4.421l-3.212-3.131l4.439-0.645L332.641,251.568 M332.641,250.1c-0.559,0-1.069,0.317-1.317,0.819l-1.643,3.33
						l-3.675,0.534c-0.553,0.08-1.013,0.468-1.185,0.999c-0.173,0.532-0.029,1.115,0.371,1.505l2.659,2.592l-0.628,3.66
						c-0.094,0.551,0.132,1.108,0.584,1.436c0.256,0.186,0.559,0.281,0.863,0.281c0.234,0,0.468-0.056,0.683-0.169l3.287-1.728
						l3.287,1.728c0.215,0.113,0.45,0.169,0.683,0.169c0.305,0,0.607-0.095,0.863-0.281c0.452-0.328,0.679-0.885,0.584-1.436
						l-0.628-3.66l2.659-2.592c0.4-0.39,0.544-0.974,0.371-1.505c-0.173-0.532-0.632-0.919-1.185-0.999l-3.674-0.534l-1.643-3.33
						C333.711,250.417,333.2,250.1,332.641,250.1L332.641,250.1z"/>
				</g>
			</g>
			<polygon style="fill:#D8AE2B;" points="334.626,255.59 339.065,256.235 335.853,259.366 336.611,263.786 332.641,261.699 
				332.641,251.568 			"/>
		</g>
	</g>
</g>
<g id="TEXTS">
	<g>
		<text transform="matrix(1 0 0 1 146.2094 219.7217)" style="fill:#FFFFFF; font-family:'Ultra-Regular'; font-size:18.6155px;">30</text>
		<text transform="matrix(1 0 0 1 320.4779 219.7217)" style="fill:#FFFFFF; font-family:'Ultra-Regular'; font-size:18.6155px;">40</text>
		<g>
			
				<text transform="matrix(1 0 0 1 226.9867 353.7207)" style="fill:#131A37; font-family:'BebasNeueBold'; font-size:18.6155px; letter-spacing:3;">LOGo</text>
			<g>
				<path id="SVGID_x5F_00000143594376072915356270000011802519084066322622_x5F_" style="fill:none;" d="M150.864,325.711
					c63.67-18.361,131.24-18.361,194.909,0"/>
				<text>				<textPath  xlink:href="#SVGID_x5F_00000143594376072915356270000011802519084066322622_x5F_" startOffset="3.418%">
<tspan  style="fill:#FCFCFC; font-family:'Ultra-Regular'; font-size:28.7034px;">FOOTBALL</tspan>				</textPath>
</text>
			</g>
			<g>
				<path id="SVGID_x5F_00000076569342858483441890000003220739215279097739_x5F_" style="fill:none;" d="M192.665,278.941
					c37.232-4.598,74.894-4.557,112.118,0.122"/>
				<text>				<textPath  xlink:href="#SVGID_x5F_00000076569342858483441890000003220739215279097739_x5F_" startOffset="12.305%">
<tspan  style="fill:#131A37; font-family:'Ultra-Regular'; font-size:11.6347px; letter-spacing:100;">AMERICAN</tspan>				</textPath>
</text>
			</g>
		</g>
	</g>
</g>
</svg>
